<mxfile host="Electron" modified="2024-06-23T01:19:22.743Z" agent="Mozilla/5.0 (X11; Linux x86_64) AppleWebKit/537.36 (KHTML, like Gecko) draw.io/23.1.5 Chrome/120.0.6099.291 Electron/28.3.3 Safari/537.36" etag="rPF8NLHnWTZn0C4oBf3i" version="23.1.5" type="device">
  <diagram name="Seite-1" id="0yb0ZHX9jofEM6catf-A">
    <mxGraphModel dx="1433" dy="736" grid="1" gridSize="10" guides="1" tooltips="1" connect="1" arrows="1" fold="1" page="1" pageScale="1" pageWidth="827" pageHeight="1169" math="0" shadow="0">
      <root>
        <mxCell id="0" />
        <mxCell id="1" parent="0" />
        <mxCell id="AfagKAXUVI6aSoaYIEJa-7" value="DepotRessource" style="swimlane;horizontal=0;whiteSpace=wrap;html=1;" parent="1" vertex="1">
          <mxGeometry x="130" y="430" width="860" height="200" as="geometry" />
        </mxCell>
        <mxCell id="jnWOQoxE9PkljcPk56Md-6" style="edgeStyle=orthogonalEdgeStyle;rounded=0;orthogonalLoop=1;jettySize=auto;html=1;entryX=0;entryY=0.5;entryDx=0;entryDy=0;" edge="1" parent="AfagKAXUVI6aSoaYIEJa-7" source="AfagKAXUVI6aSoaYIEJa-2" target="jnWOQoxE9PkljcPk56Md-3">
          <mxGeometry relative="1" as="geometry" />
        </mxCell>
        <mxCell id="jnWOQoxE9PkljcPk56Md-20" value="2" style="edgeLabel;html=1;align=center;verticalAlign=middle;resizable=0;points=[];" vertex="1" connectable="0" parent="jnWOQoxE9PkljcPk56Md-6">
          <mxGeometry x="-0.0909" y="-1" relative="1" as="geometry">
            <mxPoint as="offset" />
          </mxGeometry>
        </mxCell>
        <mxCell id="AfagKAXUVI6aSoaYIEJa-2" value="DepotRessource" style="rounded=0;whiteSpace=wrap;html=1;" parent="AfagKAXUVI6aSoaYIEJa-7" vertex="1">
          <mxGeometry x="110" y="50" width="280" height="100" as="geometry" />
        </mxCell>
        <mxCell id="jnWOQoxE9PkljcPk56Md-3" value="RepostoryImp" style="rounded=0;whiteSpace=wrap;html=1;" vertex="1" parent="AfagKAXUVI6aSoaYIEJa-7">
          <mxGeometry x="440" y="50" width="280" height="100" as="geometry" />
        </mxCell>
        <mxCell id="AfagKAXUVI6aSoaYIEJa-9" value="Client" style="swimlane;horizontal=0;whiteSpace=wrap;html=1;" parent="1" vertex="1">
          <mxGeometry x="130" y="220" width="860" height="220" as="geometry" />
        </mxCell>
        <mxCell id="AfagKAXUVI6aSoaYIEJa-1" value="Post /insertNewTransactionByDepotId" style="rounded=0;whiteSpace=wrap;html=1;" parent="AfagKAXUVI6aSoaYIEJa-9" vertex="1">
          <mxGeometry x="110" y="55" width="280" height="100" as="geometry" />
        </mxCell>
        <mxCell id="jnWOQoxE9PkljcPk56Md-26" style="edgeStyle=orthogonalEdgeStyle;rounded=0;orthogonalLoop=1;jettySize=auto;html=1;entryX=0.001;entryY=0.471;entryDx=0;entryDy=0;entryPerimeter=0;" edge="1" parent="AfagKAXUVI6aSoaYIEJa-9" source="jnWOQoxE9PkljcPk56Md-24" target="AfagKAXUVI6aSoaYIEJa-1">
          <mxGeometry relative="1" as="geometry" />
        </mxCell>
        <mxCell id="jnWOQoxE9PkljcPk56Md-24" value="" style="strokeWidth=2;html=1;shape=mxgraph.flowchart.start_2;whiteSpace=wrap;" vertex="1" parent="AfagKAXUVI6aSoaYIEJa-9">
          <mxGeometry x="40" y="85" width="40" height="35" as="geometry" />
        </mxCell>
        <mxCell id="AfagKAXUVI6aSoaYIEJa-10" value="Country-Abbreviation-Service" style="swimlane;horizontal=0;whiteSpace=wrap;html=1;" parent="1" vertex="1">
          <mxGeometry x="130" y="830" width="860" height="200" as="geometry" />
        </mxCell>
        <mxCell id="jnWOQoxE9PkljcPk56Md-4" value="CountryAbbreviationRequestProcessor" style="rounded=0;whiteSpace=wrap;html=1;" vertex="1" parent="AfagKAXUVI6aSoaYIEJa-10">
          <mxGeometry x="110" y="50" width="280" height="100" as="geometry" />
        </mxCell>
        <mxCell id="AfagKAXUVI6aSoaYIEJa-11" value="Kafka-Message-Broker" style="swimlane;horizontal=0;whiteSpace=wrap;html=1;" parent="1" vertex="1">
          <mxGeometry x="130" y="630" width="860" height="200" as="geometry" />
        </mxCell>
        <mxCell id="AfagKAXUVI6aSoaYIEJa-4" value="kafka-depot-request-topic" style="rounded=0;whiteSpace=wrap;html=1;" parent="AfagKAXUVI6aSoaYIEJa-11" vertex="1">
          <mxGeometry x="110" y="50" width="280" height="100" as="geometry" />
        </mxCell>
        <mxCell id="jnWOQoxE9PkljcPk56Md-2" value="kafka-depot-response-topic" style="rounded=0;whiteSpace=wrap;html=1;" vertex="1" parent="AfagKAXUVI6aSoaYIEJa-11">
          <mxGeometry x="440" y="50" width="280" height="100" as="geometry" />
        </mxCell>
        <mxCell id="AfagKAXUVI6aSoaYIEJa-19" value="" style="shape=datastore;whiteSpace=wrap;html=1;" parent="1" vertex="1">
          <mxGeometry x="1050" y="475" width="100" height="110" as="geometry" />
        </mxCell>
        <mxCell id="jnWOQoxE9PkljcPk56Md-5" style="edgeStyle=orthogonalEdgeStyle;rounded=0;orthogonalLoop=1;jettySize=auto;html=1;" edge="1" parent="1" source="AfagKAXUVI6aSoaYIEJa-1" target="AfagKAXUVI6aSoaYIEJa-2">
          <mxGeometry relative="1" as="geometry" />
        </mxCell>
        <mxCell id="jnWOQoxE9PkljcPk56Md-18" value="&lt;font style=&quot;font-size: 24px;&quot;&gt;1&lt;/font&gt;" style="edgeLabel;html=1;align=center;verticalAlign=middle;resizable=0;points=[];" vertex="1" connectable="0" parent="jnWOQoxE9PkljcPk56Md-5">
          <mxGeometry x="-0.3048" relative="1" as="geometry">
            <mxPoint y="19" as="offset" />
          </mxGeometry>
        </mxCell>
        <mxCell id="jnWOQoxE9PkljcPk56Md-8" style="edgeStyle=orthogonalEdgeStyle;rounded=0;orthogonalLoop=1;jettySize=auto;html=1;" edge="1" parent="1" source="AfagKAXUVI6aSoaYIEJa-2" target="AfagKAXUVI6aSoaYIEJa-4">
          <mxGeometry relative="1" as="geometry" />
        </mxCell>
        <mxCell id="jnWOQoxE9PkljcPk56Md-21" value="3" style="edgeLabel;html=1;align=center;verticalAlign=middle;resizable=0;points=[];" vertex="1" connectable="0" parent="jnWOQoxE9PkljcPk56Md-8">
          <mxGeometry x="0.1096" y="1" relative="1" as="geometry">
            <mxPoint as="offset" />
          </mxGeometry>
        </mxCell>
        <mxCell id="jnWOQoxE9PkljcPk56Md-9" style="edgeStyle=orthogonalEdgeStyle;rounded=0;orthogonalLoop=1;jettySize=auto;html=1;" edge="1" parent="1" source="AfagKAXUVI6aSoaYIEJa-4" target="jnWOQoxE9PkljcPk56Md-4">
          <mxGeometry relative="1" as="geometry" />
        </mxCell>
        <mxCell id="jnWOQoxE9PkljcPk56Md-22" value="4" style="edgeLabel;html=1;align=center;verticalAlign=middle;resizable=0;points=[];" vertex="1" connectable="0" parent="jnWOQoxE9PkljcPk56Md-9">
          <mxGeometry x="0.0748" y="1" relative="1" as="geometry">
            <mxPoint as="offset" />
          </mxGeometry>
        </mxCell>
        <mxCell id="jnWOQoxE9PkljcPk56Md-10" value="6" style="edgeStyle=orthogonalEdgeStyle;rounded=0;orthogonalLoop=1;jettySize=auto;html=1;" edge="1" parent="1" source="jnWOQoxE9PkljcPk56Md-4" target="jnWOQoxE9PkljcPk56Md-2">
          <mxGeometry relative="1" as="geometry" />
        </mxCell>
        <mxCell id="jnWOQoxE9PkljcPk56Md-12" value="External API" style="swimlane;horizontal=0;whiteSpace=wrap;html=1;" vertex="1" parent="1">
          <mxGeometry x="130" y="1030" width="860" height="200" as="geometry" />
        </mxCell>
        <mxCell id="jnWOQoxE9PkljcPk56Md-14" value="https://restcountries.com/" style="rounded=0;whiteSpace=wrap;html=1;" vertex="1" parent="jnWOQoxE9PkljcPk56Md-12">
          <mxGeometry x="110" y="50" width="280" height="100" as="geometry" />
        </mxCell>
        <mxCell id="jnWOQoxE9PkljcPk56Md-15" value="5" style="edgeStyle=orthogonalEdgeStyle;rounded=0;orthogonalLoop=1;jettySize=auto;html=1;" edge="1" parent="1" source="jnWOQoxE9PkljcPk56Md-4" target="jnWOQoxE9PkljcPk56Md-14">
          <mxGeometry relative="1" as="geometry" />
        </mxCell>
        <mxCell id="jnWOQoxE9PkljcPk56Md-16" value="7" style="edgeStyle=orthogonalEdgeStyle;rounded=0;orthogonalLoop=1;jettySize=auto;html=1;entryX=0.5;entryY=1;entryDx=0;entryDy=0;" edge="1" parent="1" source="jnWOQoxE9PkljcPk56Md-2" target="jnWOQoxE9PkljcPk56Md-3">
          <mxGeometry relative="1" as="geometry" />
        </mxCell>
        <mxCell id="jnWOQoxE9PkljcPk56Md-17" value="8" style="edgeStyle=orthogonalEdgeStyle;rounded=0;orthogonalLoop=1;jettySize=auto;html=1;" edge="1" parent="1" source="jnWOQoxE9PkljcPk56Md-3">
          <mxGeometry relative="1" as="geometry">
            <mxPoint x="1050" y="530" as="targetPoint" />
          </mxGeometry>
        </mxCell>
      </root>
    </mxGraphModel>
  </diagram>
</mxfile>
